<svg xmlns="http://www.w3.org/2000/svg" xmlns:xlink="http://www.w3.org/1999/xlink" version="1.1" x="0px" y="0px" viewBox="0 0 512 512" enable-background="new 0 0 512 512" xml:space="preserve"><g><path d="M256.001,0.009C114.616,0.009,0.013,114.63,0.013,256c0,141.371,114.604,255.991,255.988,255.991   c141.367,0,255.986-114.62,255.986-255.991C511.987,114.63,397.368,0.009,256.001,0.009z M256.001,453.961   c-109.339,0-197.976-88.622-197.976-197.961c0-29.717,6.578-57.935,18.313-83.215l50.278,29.03   c5.141-12.187,11.953-23.53,20.171-33.686l-50.466-29.124c12.563-17.093,27.765-32.093,45.061-44.405l29.107,50.374   c10.344-7.938,21.827-14.468,34.17-19.281l-29.186-50.561c18.921-8.437,39.404-14,60.903-16.125v58.404   c6.297-0.875,12.749-1.313,19.296-1.313c6.766,0,13.437,0.469,19.951,1.375V59.007c21.5,2.125,41.982,7.688,60.903,16.125   l-29.312,50.748c12.326,4.875,23.765,11.437,34.093,19.468l29.295-50.749c17.296,12.312,32.53,27.312,45.092,44.405l-50.919,29.405   c8.171,10.156,14.983,21.499,20.077,33.717l50.81-29.342c11.733,25.28,18.296,53.498,18.296,83.215   C453.959,365.339,365.339,453.961,256.001,453.961z"></path><path d="M293.451,299.687L256.89,168.597l-37.436,131.089c-1.844,4.53-2.875,9.592-2.875,14.813   c0,22.031,17.858,39.874,39.873,39.874c22.016,0,39.857-17.843,39.857-39.874C296.311,309.278,295.296,304.217,293.451,299.687   L293.451,299.687z"></path></g></svg>