<svg xmlns="http://www.w3.org/2000/svg" xmlns:xlink="http://www.w3.org/1999/xlink" viewBox="0 0 24 25" version="1.1" x="0px" y="0px"><title>Combined Shape</title><desc>Created with Sketch.</desc><g stroke="none" stroke-width="1" fill="none" fill-rule="evenodd"><g transform="translate(-24.000000, -23.000000)" fill="#000000"><path d="M37.8934112,36.025073 L24,36.025073 C24,32.5083033 28.6021925,30.8150438 30.9467056,30.8150438 C33.2912188,30.8150438 37.8934112,32.5083033 37.8934112,36.025073 Z M30.9467056,29.0783674 C29.2751546,29.0783674 27.9075219,27.7107347 27.9075219,26.0391837 C27.9075219,24.3676327 29.2751546,23 30.9467056,23 C32.6182567,23 33.9858893,24.3676327 33.9858893,26.0391837 C33.9858893,27.7107347 32.6182567,29.0783674 30.9467056,29.0783674 Z M31.0588235,38.9663866 L39.5294118,38.9802154 L39.5294118,30.4957983 C44.2075885,30.4957983 48,34.2882099 48,38.9663866 C48,43.6445633 44.2075885,47.4369748 39.5294118,47.4369748 C34.8512351,47.4369748 31.0588235,43.6445633 31.0588235,38.9663866 Z"></path></g></g></svg>