<svg xmlns="http://www.w3.org/2000/svg" xmlns:xlink="http://www.w3.org/1999/xlink" version="1.1" x="0px" y="0px" viewBox="0 0 32 32" enable-background="new 0 0 32 32" xml:space="preserve"><g><path d="M8,1H2C1.448,1,1,1.448,1,2v6c0,0.552,0.448,1,1,1h6c0.552,0,1-0.448,1-1V2C9,1.448,8.552,1,8,1z M7,7H3V3h4V7z"></path><path d="M19,1h-6c-0.552,0-1,0.448-1,1v6c0,0.552,0.448,1,1,1h6c0.552,0,1-0.448,1-1V2C20,1.448,19.552,1,19,1z M18,7h-4V3h4V7z"></path><path d="M30,1h-6c-0.552,0-1,0.448-1,1v6c0,0.552,0.448,1,1,1h6c0.552,0,1-0.448,1-1V2C31,1.448,30.552,1,30,1z M29,7h-4V3h4V7z"></path><path d="M8,12H2c-0.552,0-1,0.448-1,1v6c0,0.552,0.448,1,1,1h6c0.552,0,1-0.448,1-1v-6C9,12.448,8.552,12,8,12z M7,18H3v-4h4V18z"></path><path d="M19,12h-6c-0.552,0-1,0.448-1,1v6c0,0.552,0.448,1,1,1h6c0.552,0,1-0.448,1-1v-6C20,12.448,19.552,12,19,12z M18,18h-4v-4   h4V18z"></path><path d="M30,12h-6c-0.552,0-1,0.448-1,1v6c0,0.552,0.448,1,1,1h6c0.552,0,1-0.448,1-1v-6C31,12.448,30.552,12,30,12z M29,18h-4v-4   h4V18z"></path><path d="M8,23H2c-0.552,0-1,0.448-1,1v6c0,0.552,0.448,1,1,1h6c0.552,0,1-0.448,1-1v-6C9,23.448,8.552,23,8,23z M7,29H3v-4h4V29z"></path><path d="M19,23h-6c-0.552,0-1,0.448-1,1v6c0,0.552,0.448,1,1,1h6c0.552,0,1-0.448,1-1v-6C20,23.448,19.552,23,19,23z M18,29h-4v-4   h4V29z"></path><path d="M30,23h-6c-0.552,0-1,0.448-1,1v6c0,0.552,0.448,1,1,1h6c0.552,0,1-0.448,1-1v-6C31,23.448,30.552,23,30,23z M29,29h-4v-4   h4V29z"></path></g></svg>